{
	"asset":{
		"generator":"Khronos glTF Blender I/O v4.3.47",
		"version":"2.0"
	},
	"scene":0,
	"scenes":[
		{
			"name":"Scene",
			"nodes":[
				0,
				8
			]
		}
	],
	"nodes":[
		{
			"mesh":0,
			"name":"Plane",
			"rotation":[
				0.5000000596046448,
				-0.5,
				-0.5,
				0.5
			],
			"scale":[
				1,
				1,
				0.5843278169631958
			],
			"translation":[
				-0.005092144012451172,
				2.0065879821777344,
				0.28536781668663025
			]
		},
		{
			"name":"Bone.005",
			"rotation":[
				-5.5077929772551215e-08,
				-2.874213933523606e-08,
				0.011204937472939491,
				0.9999372363090515
			],
			"scale":[
				0.9999999403953552,
				0.9999999403953552,
				1
			],
			"translation":[
				1.484158929088153e-07,
				1.0602428913116455,
				1.0658141036401503e-14
			]
		},
		{
			"children":[
				1
			],
			"name":"Bone.004",
			"rotation":[
				-7.224809875252917e-15,
				2.7070039692184756e-20,
				-4.440892098500626e-16,
				1
			],
			"translation":[
				1.357726233663925e-07,
				1.252396583557129,
				-1.4210854715202004e-14
			]
		},
		{
			"children":[
				2
			],
			"name":"Bone.003",
			"rotation":[
				-3.03799901901769e-11,
				4.546363285840016e-13,
				-3.86477516656214e-11,
				1
			],
			"translation":[
				1.2086265144262143e-07,
				1.2430696487426758,
				-9.693579272607167e-12
			]
		},
		{
			"children":[
				3
			],
			"name":"Bone.002",
			"rotation":[
				-0.0023610733915120363,
				-5.0285123620597005e-08,
				0.0013230181066319346,
				0.9999963641166687
			],
			"scale":[
				1,
				1,
				1.0000001192092896
			],
			"translation":[
				6.86122803017497e-08,
				1.118348479270935,
				1.856697053881362e-06
			]
		},
		{
			"children":[
				4
			],
			"name":"Bone.001",
			"rotation":[
				0.002361095743253827,
				5.031422745105374e-08,
				-0.0013230179902166128,
				0.9999963641166687
			],
			"scale":[
				0.9999998807907104,
				1,
				1
			],
			"translation":[
				9.267851197591881e-08,
				0.9999997615814209,
				8.564240943087498e-07
			]
		},
		{
			"children":[
				5
			],
			"name":"Bone",
			"rotation":[
				-1.7763568394002505e-15,
				-3.308722450212111e-24,
				4.440892098500626e-16,
				1
			],
			"translation":[
				-0.002959051402285695,
				-0.11911295354366302,
				-0.005281589459627867
			]
		},
		{
			"mesh":1,
			"name":"Plane.001",
			"skin":0
		},
		{
			"children":[
				7,
				6
			],
			"name":"Armature",
			"rotation":[
				-0.5,
				-0.5,
				-0.5,
				0.5
			],
			"scale":[
				0.18454265594482422,
				0.18454265594482422,
				0.18454265594482422
			],
			"translation":[
				-0.573136568069458,
				2.8714678287506104,
				0.2826766073703766
			]
		}
	],
	"animations":[
		{
			"channels":[
				{
					"sampler":0,
					"target":{
						"node":6,
						"path":"translation"
					}
				},
				{
					"sampler":1,
					"target":{
						"node":6,
						"path":"rotation"
					}
				},
				{
					"sampler":2,
					"target":{
						"node":6,
						"path":"scale"
					}
				},
				{
					"sampler":3,
					"target":{
						"node":5,
						"path":"translation"
					}
				},
				{
					"sampler":4,
					"target":{
						"node":5,
						"path":"rotation"
					}
				},
				{
					"sampler":5,
					"target":{
						"node":5,
						"path":"scale"
					}
				},
				{
					"sampler":6,
					"target":{
						"node":4,
						"path":"translation"
					}
				},
				{
					"sampler":7,
					"target":{
						"node":4,
						"path":"rotation"
					}
				},
				{
					"sampler":8,
					"target":{
						"node":4,
						"path":"scale"
					}
				},
				{
					"sampler":9,
					"target":{
						"node":3,
						"path":"translation"
					}
				},
				{
					"sampler":10,
					"target":{
						"node":3,
						"path":"rotation"
					}
				},
				{
					"sampler":11,
					"target":{
						"node":3,
						"path":"scale"
					}
				},
				{
					"sampler":12,
					"target":{
						"node":2,
						"path":"translation"
					}
				},
				{
					"sampler":13,
					"target":{
						"node":2,
						"path":"rotation"
					}
				},
				{
					"sampler":14,
					"target":{
						"node":2,
						"path":"scale"
					}
				},
				{
					"sampler":15,
					"target":{
						"node":1,
						"path":"translation"
					}
				},
				{
					"sampler":16,
					"target":{
						"node":1,
						"path":"rotation"
					}
				},
				{
					"sampler":17,
					"target":{
						"node":1,
						"path":"scale"
					}
				}
			],
			"name":"ArmatureAction.004",
			"samplers":[
				{
					"input":11,
					"interpolation":"LINEAR",
					"output":12
				},
				{
					"input":13,
					"interpolation":"LINEAR",
					"output":14
				},
				{
					"input":11,
					"interpolation":"STEP",
					"output":15
				},
				{
					"input":11,
					"interpolation":"LINEAR",
					"output":16
				},
				{
					"input":13,
					"interpolation":"LINEAR",
					"output":17
				},
				{
					"input":11,
					"interpolation":"STEP",
					"output":18
				},
				{
					"input":11,
					"interpolation":"LINEAR",
					"output":19
				},
				{
					"input":13,
					"interpolation":"LINEAR",
					"output":20
				},
				{
					"input":11,
					"interpolation":"LINEAR",
					"output":21
				},
				{
					"input":11,
					"interpolation":"LINEAR",
					"output":22
				},
				{
					"input":13,
					"interpolation":"LINEAR",
					"output":23
				},
				{
					"input":11,
					"interpolation":"STEP",
					"output":24
				},
				{
					"input":11,
					"interpolation":"LINEAR",
					"output":25
				},
				{
					"input":13,
					"interpolation":"LINEAR",
					"output":26
				},
				{
					"input":11,
					"interpolation":"STEP",
					"output":27
				},
				{
					"input":11,
					"interpolation":"LINEAR",
					"output":28
				},
				{
					"input":13,
					"interpolation":"LINEAR",
					"output":29
				},
				{
					"input":11,
					"interpolation":"LINEAR",
					"output":30
				}
			]
		},
		{
			"channels":[
				{
					"sampler":0,
					"target":{
						"node":7,
						"path":"translation"
					}
				}
			],
			"name":"SobreAbir",
			"samplers":[
				{
					"input":31,
					"interpolation":"LINEAR",
					"output":32
				}
			]
		}
	],
	"materials":[
		{
			"doubleSided":true,
			"name":"Material.001"
		}
	],
	"meshes":[
		{
			"name":"Plane.001",
			"primitives":[
				{
					"attributes":{
						"POSITION":0,
						"NORMAL":1,
						"TEXCOORD_0":2
					},
					"indices":3,
					"material":0
				}
			]
		},
		{
			"name":"Plane.002",
			"primitives":[
				{
					"attributes":{
						"POSITION":4,
						"NORMAL":5,
						"TEXCOORD_0":6,
						"JOINTS_0":7,
						"WEIGHTS_0":8
					},
					"indices":9,
					"material":0
				}
			]
		}
	],
	"skins":[
		{
			"inverseBindMatrices":10,
			"joints":[
				6,
				5,
				4,
				3,
				2,
				1
			],
			"name":"Armature"
		}
	],
	"accessors":[
		{
			"bufferView":0,
			"componentType":5126,
			"count":204,
			"max":[
				1,
				0.013281852006912231,
				1.0446763038635254
			],
			"min":[
				-0.8656883835792542,
				-0.013281852006912231,
				-1.0446763038635254
			],
			"type":"VEC3"
		},
		{
			"bufferView":1,
			"componentType":5126,
			"count":204,
			"type":"VEC3"
		},
		{
			"bufferView":2,
			"componentType":5126,
			"count":204,
			"type":"VEC2"
		},
		{
			"bufferView":3,
			"componentType":5123,
			"count":486,
			"type":"SCALAR"
		},
		{
			"bufferView":4,
			"componentType":5126,
			"count":11,
			"max":[
				0.6053412556648254,
				3.0065884590148926,
				0.28536784648895264
			],
			"min":[
				-0.6155255436897278,
				2.872276782989502,
				0.28536781668663025
			],
			"type":"VEC3"
		},
		{
			"bufferView":5,
			"componentType":5126,
			"count":11,
			"type":"VEC3"
		},
		{
			"bufferView":6,
			"componentType":5126,
			"count":11,
			"type":"VEC2"
		},
		{
			"bufferView":7,
			"componentType":5121,
			"count":11,
			"type":"VEC4"
		},
		{
			"bufferView":8,
			"componentType":5126,
			"count":11,
			"type":"VEC4"
		},
		{
			"bufferView":9,
			"componentType":5123,
			"count":27,
			"type":"SCALAR"
		},
		{
			"bufferView":10,
			"componentType":5126,
			"count":6,
			"type":"MAT4"
		},
		{
			"bufferView":11,
			"componentType":5126,
			"count":2,
			"max":[
				2.3333333333333335
			],
			"min":[
				0.03333333333333333
			],
			"type":"SCALAR"
		},
		{
			"bufferView":12,
			"componentType":5126,
			"count":2,
			"type":"VEC3"
		},
		{
			"bufferView":13,
			"componentType":5126,
			"count":70,
			"max":[
				2.3333333333333335
			],
			"min":[
				0.03333333333333333
			],
			"type":"SCALAR"
		},
		{
			"bufferView":14,
			"componentType":5126,
			"count":70,
			"type":"VEC4"
		},
		{
			"bufferView":15,
			"componentType":5126,
			"count":2,
			"type":"VEC3"
		},
		{
			"bufferView":16,
			"componentType":5126,
			"count":2,
			"type":"VEC3"
		},
		{
			"bufferView":17,
			"componentType":5126,
			"count":70,
			"type":"VEC4"
		},
		{
			"bufferView":18,
			"componentType":5126,
			"count":2,
			"type":"VEC3"
		},
		{
			"bufferView":19,
			"componentType":5126,
			"count":2,
			"type":"VEC3"
		},
		{
			"bufferView":20,
			"componentType":5126,
			"count":70,
			"type":"VEC4"
		},
		{
			"bufferView":21,
			"componentType":5126,
			"count":2,
			"type":"VEC3"
		},
		{
			"bufferView":22,
			"componentType":5126,
			"count":2,
			"type":"VEC3"
		},
		{
			"bufferView":23,
			"componentType":5126,
			"count":70,
			"type":"VEC4"
		},
		{
			"bufferView":24,
			"componentType":5126,
			"count":2,
			"type":"VEC3"
		},
		{
			"bufferView":25,
			"componentType":5126,
			"count":2,
			"type":"VEC3"
		},
		{
			"bufferView":26,
			"componentType":5126,
			"count":70,
			"type":"VEC4"
		},
		{
			"bufferView":27,
			"componentType":5126,
			"count":2,
			"type":"VEC3"
		},
		{
			"bufferView":28,
			"componentType":5126,
			"count":2,
			"type":"VEC3"
		},
		{
			"bufferView":29,
			"componentType":5126,
			"count":70,
			"type":"VEC4"
		},
		{
			"bufferView":30,
			"componentType":5126,
			"count":2,
			"type":"VEC3"
		},
		{
			"bufferView":31,
			"componentType":5126,
			"count":1,
			"max":[
				0.03333333333333333
			],
			"min":[
				0.03333333333333333
			],
			"type":"SCALAR"
		},
		{
			"bufferView":32,
			"componentType":5126,
			"count":1,
			"type":"VEC3"
		}
	],
	"bufferViews":[
		{
			"buffer":0,
			"byteLength":2448,
			"byteOffset":0,
			"target":34962
		},
		{
			"buffer":0,
			"byteLength":2448,
			"byteOffset":2448,
			"target":34962
		},
		{
			"buffer":0,
			"byteLength":1632,
			"byteOffset":4896,
			"target":34962
		},
		{
			"buffer":0,
			"byteLength":972,
			"byteOffset":6528,
			"target":34963
		},
		{
			"buffer":0,
			"byteLength":132,
			"byteOffset":7500,
			"target":34962
		},
		{
			"buffer":0,
			"byteLength":132,
			"byteOffset":7632,
			"target":34962
		},
		{
			"buffer":0,
			"byteLength":88,
			"byteOffset":7764,
			"target":34962
		},
		{
			"buffer":0,
			"byteLength":44,
			"byteOffset":7852,
			"target":34962
		},
		{
			"buffer":0,
			"byteLength":176,
			"byteOffset":7896,
			"target":34962
		},
		{
			"buffer":0,
			"byteLength":54,
			"byteOffset":8072,
			"target":34963
		},
		{
			"buffer":0,
			"byteLength":384,
			"byteOffset":8128
		},
		{
			"buffer":0,
			"byteLength":8,
			"byteOffset":8512
		},
		{
			"buffer":0,
			"byteLength":24,
			"byteOffset":8520
		},
		{
			"buffer":0,
			"byteLength":280,
			"byteOffset":8544
		},
		{
			"buffer":0,
			"byteLength":1120,
			"byteOffset":8824
		},
		{
			"buffer":0,
			"byteLength":24,
			"byteOffset":9944
		},
		{
			"buffer":0,
			"byteLength":24,
			"byteOffset":9968
		},
		{
			"buffer":0,
			"byteLength":1120,
			"byteOffset":9992
		},
		{
			"buffer":0,
			"byteLength":24,
			"byteOffset":11112
		},
		{
			"buffer":0,
			"byteLength":24,
			"byteOffset":11136
		},
		{
			"buffer":0,
			"byteLength":1120,
			"byteOffset":11160
		},
		{
			"buffer":0,
			"byteLength":24,
			"byteOffset":12280
		},
		{
			"buffer":0,
			"byteLength":24,
			"byteOffset":12304
		},
		{
			"buffer":0,
			"byteLength":1120,
			"byteOffset":12328
		},
		{
			"buffer":0,
			"byteLength":24,
			"byteOffset":13448
		},
		{
			"buffer":0,
			"byteLength":24,
			"byteOffset":13472
		},
		{
			"buffer":0,
			"byteLength":1120,
			"byteOffset":13496
		},
		{
			"buffer":0,
			"byteLength":24,
			"byteOffset":14616
		},
		{
			"buffer":0,
			"byteLength":24,
			"byteOffset":14640
		},
		{
			"buffer":0,
			"byteLength":1120,
			"byteOffset":14664
		},
		{
			"buffer":0,
			"byteLength":24,
			"byteOffset":15784
		},
		{
			"buffer":0,
			"byteLength":4,
			"byteOffset":15808
		},
		{
			"buffer":0,
			"byteLength":12,
			"byteOffset":15812
		}
	],
	"buffers":[
		{
			"byteLength":15824,
			"uri":"sobre3D.bin"
		}
	]
}
